<svg id="Calque_1" data-name="Calque 1" xmlns="http://www.w3.org/2000/svg" xmlns:xlink="http://www.w3.org/1999/xlink" viewBox="0 0 711 689"><defs><style>.cls-1{fill:none;}.cls-2{clip-path:url(#clip-path);}</style><clipPath id="clip-path"><rect class="cls-1" y="1.67" width="711.08" height="696.09"/></clipPath></defs><title>Plan de travail 1</title><g class="cls-2"><path d="M663.1,572.54c-42-13.39-83.38-28.79-124.24-44.77-11.64-4.46-20.28-14.49-30.81-21.47-4.67-3.07-10.24-5.85-15.83-6.62-19-2.64-27.32-8.37-31.86-24.47-5.85-21.12-10.05-42.18-4.94-64.08a35.39,35.39,0,0,1,1.39-4.53,36.38,36.38,0,0,1,1.95-4.18c.28-.41.48-.76.76-1.17a17.74,17.74,0,0,1,2.31-3,13.78,13.78,0,0,1,1.94-1.68,19,19,0,0,1,2.52-1.89,29.82,29.82,0,0,1,5.92-2.72c.15-.07.22-.14.36-.21,1.32-.41,3.05-.84,4.52-1.32,22.52-6.55,65.89-13.67,89.38-20.7,2.23-.63,4.61-1.33,6.43-2,16.65-6.07,17.63-11.09,11.63-25.88-19.16-46.57-33.39-94-38-143.75-3.49-37.31-.63-75.72-16.39-111.7C521.23,66,499.54,13.1,426.83,3.55c-16.32-3.27-38.34-2.5-69.38,4.26a1.35,1.35,0,0,0-.48.08c-1.88.05-9.91.12-13.75.33C238-5.16,194.94,60.93,183.78,86.38c-15.76,36-12.9,74.39-16.38,111.7-4.61,49.78-18.83,97.18-38,143.75-6,14.79-4.94,19.81,11.64,25.88,22.24,8.08,77.89,16.51,100.32,24,10.89,3.62,14.93,9.76,17.16,19.38,5.15,21.9.91,43-4.95,64.08-4.53,16.1-12.9,21.83-31.86,24.47-5.58.77-11.15,3.55-15.83,6.62-10.53,7-19.17,17-30.81,21.47-40.92,16-82.2,31.38-124.24,44.77C-13.8,593.12,10.46,628.74,0,689.1H713.93c-10.45-60.36,13.8-96-50.83-116.56Zm0,0"/></g></svg>